# xmcd
#
# Track frame offsets:
# 150
# 16128
# 29782
# 46101
# 64475
# 90811
# 109998
# 137549
# 155408
# 171607
# 186970
# 205009
# 223551
# 252375
#
# Disc length: 3563 seconds
#
#
# Revision: 0
# Processed by: cddbd v1.5.2PL0 Copyright (c) Steve Scherf et al.
# Submitted via: FreeRIP 2.945 
#
DISCID=c50de90e
DTITLE=Live On The BBC
DYEAR=1999
DGENRE=Country
TTITLE0=Tonight The Heartache's On Me
TTITLE1=The Price I Pay
TTITLE2=Am I The Only One Who's Ever Felt This Way
TTITLE3=Loving Arms
TTITLE4=Hey Dixie I Hear You Calling
TTITLE5=There's Your Trouble
TTITLE6=Love Me Like A Man
TTITLE7=Stand By Your Man
TTITLE8=Letter Rip
TTITLE9=Roanoke
TTITLE10=You Were Mine
TTITLE11=Wide Open Spaces
TTITLE12=Give It Up Or Let Me Go
TTITLE13=Let Him Fly
EXTD=
EXTT0=
EXTT1=
EXTT2=
EXTT3=
EXTT4=
EXTT5=
EXTT6=
EXTT7=
EXTT8=
EXTT9=
EXTT10=
EXTT11=
EXTT12=
EXTT13=
PLAYORDER=
